<?xml version="1.0" standalone="no"?><!DOCTYPE svg PUBLIC "-//W3C//DTD SVG 1.1//EN" "http://www.w3.org/Graphics/SVG/1.1/DTD/svg11.dtd"><svg t="1600935595777" class="icon" viewBox="0 0 1024 1024" version="1.1" xmlns="http://www.w3.org/2000/svg" p-id="3150" xmlns:xlink="http://www.w3.org/1999/xlink" width="200" height="200"><defs><style type="text/css"></style></defs><path d="M460.8 563.2c-155.136 0-281.6-126.464-281.6-281.6S305.664 0 460.8 0s281.6 126.464 281.6 281.6c0 39.424-8.192 77.312-23.552 112.64-5.632 12.8-20.992 18.944-33.792 12.8-12.8-5.632-18.944-20.992-12.8-33.792 12.8-29.184 19.456-59.904 19.456-92.16 0-126.976-103.424-230.4-230.4-230.4s-230.4 103.424-230.4 230.4 103.424 230.4 230.4 230.4c14.336 0 25.6 11.264 25.6 25.6S475.136 563.2 460.8 563.2z" fill="#2c2c2c" p-id="3151"></path><path d="M51.2 1024H0c0-121.344 51.712-249.344 142.336-350.72C233.984 570.88 350.208 512 460.8 512v51.2c-202.752 0-409.6 232.448-409.6 460.8z" fill="#2c2c2c" p-id="3152"></path><path d="M829.952 1024c-21.504 0-41.472-10.24-54.784-29.184l-19.456-28.16c-3.072-4.608-8.192-7.168-13.312-7.168s-10.24 2.56-13.824 7.168l-19.456 28.16c-18.432 26.624-50.688 35.84-80.896 23.552-30.208-12.288-47.104-42.496-41.472-74.24l5.632-33.28c1.536-8.192-3.072-13.312-5.12-15.36-2.048-2.048-7.168-5.632-14.336-4.608l-33.792 6.144c-32.256 5.632-61.952-10.24-74.752-39.936-12.8-30.208-3.072-62.976 23.552-81.92l28.16-19.456c4.608-3.072 7.168-8.192 7.168-13.312s-2.56-10.24-7.168-13.824l-28.16-19.456c-26.624-18.432-35.84-51.2-23.552-80.896 12.288-30.208 41.984-46.592 74.24-40.96l33.28 6.144c7.68 1.536 13.312-3.072 14.848-4.608 2.048-2.048 5.632-7.168 4.096-14.336v-0.512l-5.632-33.28c-5.632-31.744 10.24-61.44 39.936-74.24 30.208-12.8 62.976-3.072 81.92 23.552l19.456 28.16c3.072 4.608 8.192 7.168 13.312 7.168s10.24-2.56 13.824-7.168l19.456-28.16c18.432-26.624 51.2-36.352 80.896-23.552 30.208 12.288 46.08 42.496 40.448 74.752l-3.584 32.256c-1.536 8.192 3.072 13.312 5.12 15.36 2.048 2.048 7.168 5.632 14.336 4.608l33.792-6.144c32.256-5.632 62.464 10.24 74.752 39.936 12.8 30.208 3.072 62.976-23.552 81.92l-28.16 19.456c-4.608 3.072-7.168 8.192-7.168 13.312s2.56 10.24 7.168 13.824l28.16 19.456c27.136 18.944 36.864 52.224 24.064 82.432-12.8 29.696-42.496 45.568-74.752 39.424l-32.768-6.144c-7.68-1.536-13.312 3.072-14.848 4.608-2.048 2.048-5.632 7.168-4.096 14.336v0.512l5.632 33.28c5.632 31.744-10.24 61.952-39.936 74.24-10.24 4.096-19.456 6.144-28.672 6.144zM742.4 908.288c22.016 0 43.008 10.752 55.296 29.184l19.456 28.16c7.168 10.24 16.896 6.656 19.968 5.632 3.584-1.536 11.776-6.144 9.728-18.432l-5.632-33.28c-4.096-21.504 2.56-44.032 17.92-59.392 15.872-15.872 38.4-23.04 60.416-19.456l33.28 6.144c11.776 2.048 16.384-5.632 17.92-9.216 1.024-3.072 4.608-12.8-6.144-20.48l-28.16-19.456c-18.432-12.8-29.184-33.792-29.184-55.808s10.752-43.008 29.184-55.296l28.16-19.456c10.24-7.168 7.168-16.896 5.632-19.968-1.536-3.584-6.144-11.776-18.432-9.728l-33.28 6.144c-21.504 4.096-43.52-2.56-59.392-17.92-15.872-15.872-23.552-38.4-19.456-60.416l5.632-33.28c2.048-12.288-6.144-16.896-9.728-18.432-3.584-1.536-12.8-4.096-19.456 5.632l-19.456 28.16c-12.8 18.432-33.792 29.184-55.808 29.184s-43.008-10.752-55.296-29.184l-19.456-28.16c-7.168-9.728-16.896-6.656-19.968-5.632-3.584 1.536-11.776 6.144-9.728 17.92l5.632 33.28c4.096 21.504-2.56 44.032-17.92 59.392-15.872 15.872-38.4 23.04-60.416 19.456l-33.28-6.144c-11.264-2.048-16.384 6.656-17.92 10.24-1.536 3.584-4.096 12.8 5.632 19.456l28.16 19.456c18.432 12.8 29.184 33.792 29.184 55.808s-10.752 43.008-29.184 55.296l-28.16 19.456c-10.24 7.168-7.168 16.896-5.632 19.968 1.536 3.584 6.144 11.776 18.432 9.728l33.28-6.144c21.504-4.096 43.52 2.56 59.392 17.92 15.872 15.872 23.552 38.4 19.456 60.416l-5.632 33.28c-2.048 12.288 7.168 17.408 10.24 18.432 3.584 1.536 12.8 4.096 19.456-5.632l19.456-28.16c12.8-17.92 33.28-28.672 55.808-28.672z m0.512-21.504c-79.36 0-143.872-65.024-143.872-144.384s64.512-144.384 143.872-144.384c79.36 0 143.872 65.024 143.872 144.384s-64.512 144.384-143.872 144.384z m0-237.568c-51.2 0-92.672 41.984-92.672 93.184s41.472 93.184 92.672 93.184 92.672-41.984 92.672-93.184-41.472-93.184-92.672-93.184z" fill="#2c2c2c" p-id="3153"></path></svg>